grf
version=1
nRows=26
nColumns=19
inDegrees=yes
endheader
time	ground_force_1_vx	ground_force_1_vy	ground_force_1_vz	ground_force_1_px	ground_force_1_py	ground_force_1_pz	ground_moment_1_mx	ground_moment_1_my	ground_moment_1_mz	ground_force_2_vx	ground_force_2_vy	ground_force_2_vz	ground_force_2_px	ground_force_2_py	ground_force_2_pz	ground_moment_2_mx	ground_moment_2_my	ground_moment_2_mz
5.261000	20.730909	1365.974121	-533.431458	0.194407	0.000000	-0.786633	0.000000	1.599022	0.000000	-6.114780	1439.621338	554.665894	0.235292	0.000000	-1.590848	0.000000	-8.734076	-0.000000
5.262000	21.864988	1366.139771	-533.472351	0.194518	0.000000	-0.787234	0.000000	1.344217	-0.000000	-6.759718	1432.626587	553.981323	0.236216	0.000000	-1.591704	0.000000	-8.344740	0.000000
5.263000	21.258656	1373.986572	-533.916016	0.194708	0.000000	-0.786959	0.000000	1.336977	0.000000	-7.323072	1432.612793	555.148743	0.235984	0.000000	-1.591578	0.000000	-8.581956	-0.000000
5.264000	22.624313	1372.366455	-532.950195	0.195003	0.000000	-0.787797	0.000000	1.437168	0.000000	-6.519108	1428.144287	555.309448	0.235159	0.000000	-1.591619	-0.000000	-9.063832	-0.000000
5.265000	19.081257	1373.009766	-534.721924	0.195048	0.000000	-0.786941	0.000000	1.201826	-0.000000	-7.684467	1435.649902	555.712463	0.236256	0.000000	-1.591429	0.000000	-8.414676	-0.000000
5.266000	22.265915	1375.903687	-532.953247	0.194667	0.000000	-0.787716	0.000000	1.553335	0.000000	-8.247269	1434.053223	555.632202	0.236357	0.000000	-1.591867	0.000000	-8.360203	-0.000000
5.267000	21.459879	1368.058350	-534.519409	0.194763	0.000000	-0.786241	-0.000000	1.274918	-0.000000	-9.738409	1440.908447	556.717041	0.236122	0.000000	-1.591290	0.000000	-8.737498	-0.000000
5.268000	22.065071	1373.504150	-535.002380	0.194553	0.000000	-0.787301	0.000000	1.369378	0.000000	-9.173952	1434.371582	555.875000	0.236051	0.000000	-1.592288	0.000000	-8.864313	-0.000000
5.269000	21.663765	1365.499634	-535.685425	0.194564	0.000000	-0.786031	0.000000	1.191425	0.000000	-9.496141	1438.354248	556.116516	0.235901	0.000000	-1.591703	0.000000	-9.008285	-0.000000
5.270000	21.304226	1372.392334	-534.280762	0.194508	0.000000	-0.786956	0.000000	1.313322	0.000000	-9.696581	1434.054565	556.197021	0.236736	0.000000	-1.591981	0.000000	-8.479634	-0.000000
5.271000	21.984581	1362.134033	-536.732056	0.194746	0.000000	-0.785338	0.000000	1.125690	0.000000	-12.517488	1440.427490	556.156738	0.236055	0.000000	-1.591709	-0.000000	-9.538529	-0.000000
5.272000	22.552952	1375.260254	-534.806396	0.194897	0.000000	-0.786881	0.000000	1.223348	0.000000	-9.858091	1434.536621	556.599243	0.236785	0.000000	-1.591921	-0.000000	-8.522835	-0.000000
5.273000	24.686684	1366.146729	-537.937012	0.194420	0.000000	-0.786548	0.000000	1.125393	0.000000	-10.501372	1429.751221	556.439270	0.236110	0.000000	-1.590873	0.000000	-8.952182	-0.000000
5.274000	25.248207	1369.178223	-535.369019	0.194774	0.000000	-0.786217	0.000000	1.446677	0.000000	-10.460098	1444.734253	556.439453	0.236453	0.000000	-1.591729	0.000000	-8.666234	-0.000000
5.275000	23.521490	1361.941406	-538.182251	0.195267	0.000000	-0.787232	0.000000	0.673419	0.000000	-11.547876	1438.357666	556.561035	0.236764	0.000000	-1.591598	0.000000	-8.800386	-0.000000
5.276000	23.601599	1376.873413	-537.778198	0.194688	0.000000	-0.787325	0.000000	0.958025	0.000000	-10.581576	1437.251343	556.520020	0.236944	0.000000	-1.591853	0.000000	-8.498207	-0.000000
5.277000	23.358990	1368.062744	-538.422729	0.194633	0.000000	-0.786612	0.000000	1.006881	0.000000	-11.224856	1440.440674	556.520996	0.237160	0.000000	-1.591871	0.000000	-8.447240	-0.000000
5.278000	23.518066	1373.517700	-538.622864	0.194463	0.000000	-0.786494	0.000000	1.135888	-0.000000	-9.856988	1436.003052	556.561279	0.238304	0.000000	-1.593332	0.000000	-7.770986	0.000000
5.279000	24.245895	1379.441284	-538.378784	0.194525	0.000000	-0.787638	0.000000	0.934172	0.000000	-9.613482	1439.962158	558.571411	0.237239	0.000000	-1.591760	0.000000	-7.966586	-0.000000
5.280000	23.801682	1375.280518	-539.145020	0.194354	0.000000	-0.786800	0.000000	1.079753	0.000000	-11.064037	1445.863770	557.366333	0.237555	0.000000	-1.592500	0.000000	-8.289209	-0.000000
5.281000	24.770599	1376.720459	-539.184448	0.194436	0.000000	-0.787661	0.000000	0.958134	0.000000	-12.391872	1439.966064	557.487305	0.237757	0.000000	-1.592371	0.000000	-8.292748	-0.000000
5.282000	25.057636	1383.758911	-539.547119	0.194749	0.000000	-0.786820	0.000000	0.566835	0.000000	-11.828795	1442.353516	556.561951	0.237568	0.000000	-1.592084	0.000000	-8.377284	-0.000000
5.283000	23.713964	1377.374634	-539.304504	0.194094	0.000000	-0.787122	0.000000	1.463813	0.000000	-12.634136	1438.365723	558.091187	0.238138	0.000000	-1.591368	0.000000	-8.221871	-0.000000
5.284000	23.321789	1370.014771	-539.785522	0.193713	0.000000	-0.786425	0.000000	1.094172	0.000000	-12.633584	1446.341431	557.649780	0.237503	0.000000	-1.592533	0.000000	-8.624611	-0.000000
5.285000	25.899353	1372.912598	-539.423096	0.193312	0.000000	-0.787019	0.000000	1.418187	0.000000	-12.997189	1443.784790	558.614563	0.237558	0.000000	-1.591967	0.000000	-8.717201	-0.000000
5.286000	26.181446	1376.767944	-538.455627	0.192977	0.000000	-0.787309	0.000000	1.573125	0.000000	-13.961007	1436.931885	559.336792	0.237558	0.000000	-1.592574	0.000000	-8.398482	-0.000000
